<?xml version="1.0" encoding="utf-8"?>
<!-- Generator: Adobe Illustrator 28.7.1, SVG Export Plug-In . SVG Version: 9.03 Build 54978)  -->
<!DOCTYPE svg PUBLIC "-//W3C//DTD SVG 1.1 Basic//EN" "http://www.w3.org/Graphics/SVG/1.1/DTD/svg11-basic.dtd" [
	<!ENTITY ns_extend "http://ns.adobe.com/Extensibility/1.0/">
	<!ENTITY ns_ai "http://ns.adobe.com/AdobeIllustrator/10.0/">
	<!ENTITY ns_graphs "http://ns.adobe.com/Graphs/1.0/">
	<!ENTITY ns_vars "http://ns.adobe.com/Variables/1.0/">
	<!ENTITY ns_imrep "http://ns.adobe.com/ImageReplacement/1.0/">
	<!ENTITY ns_sfw "http://ns.adobe.com/SaveForWeb/1.0/">
	<!ENTITY ns_custom "http://ns.adobe.com/GenericCustomNamespace/1.0/">
	<!ENTITY ns_adobe_xpath "http://ns.adobe.com/XPath/1.0/">
]>
<svg version="1.1" baseProfile="basic" id="Layer_1" xmlns:x="&ns_extend;" xmlns:i="&ns_ai;" xmlns:graph="&ns_graphs;"
	 xmlns="http://www.w3.org/2000/svg" xmlns:xlink="http://www.w3.org/1999/xlink" x="0px" y="0px" viewBox="0 0 940.3 747.8"
	 xml:space="preserve">
<style type="text/css">
	.st0{fill:#99D0BA;}
	.st1{clip-path:url(#SVGID_00000101813749587868598200000010600035442048615580_);}
	.st2{fill:none;stroke:#99D0BA;stroke-width:8.8198;stroke-miterlimit:81.587;}
	.st3{clip-path:url(#SVGID_00000150086342648138217850000011009004077384609161_);}
	.st4{clip-path:url(#SVGID_00000029759294891629619480000000699377311870903719_);}
	.st5{clip-path:url(#SVGID_00000074442889855815746360000016632026193417060527_);}
	.st6{fill:none;stroke:#FFFFFF;stroke-width:8.8198;stroke-miterlimit:81.587;}
	.st7{fill:#FFFFFF;}
</style>
<metadata>
	<sfw  xmlns="&ns_sfw;">
		<slices></slices>
		<sliceSourceBounds  bottomLeftOrigin="true" height="821.7" width="979.9" x="-184" y="-15.3"></sliceSourceBounds>
	</sfw>
</metadata>
<g>
	<polygon class="st0" points="730.7,0 730.7,747.8 940.3,747.8 940.3,0 730.7,0 	"/>
	<g>
		<defs>
			<rect id="SVGID_1_" x="-3.6" y="-23.8" width="979.9" height="799.8"/>
		</defs>
		<clipPath id="SVGID_00000088836568060944130760000017739856613774370485_">
			<use xlink:href="#SVGID_1_"  style="overflow:visible;"/>
		</clipPath>
		<g style="clip-path:url(#SVGID_00000088836568060944130760000017739856613774370485_);">
			<path class="st2" d="M231.8,9.5c2,0,3.8,0.6,5.4,1.8c1.6,1.2,2.4,3.1,2.4,5.5c0,1-0.2,2-0.5,3.2L185,176.7
				c-0.5,1.5-1.4,2.6-2.7,3.4c-1.3,0.8-2.6,1.2-3.9,1.2c-1.6,0-3.1-0.4-4.4-1.1c-1.3-0.7-2.3-1.9-2.9-3.5L127.8,69.5l2,0.5
				L86.4,176.7c-0.7,1.6-1.7,2.8-3.1,3.5c-1.4,0.7-2.8,1.1-4.3,1.1c-1.3,0-2.6-0.4-3.9-1.2c-1.3-0.8-2.2-2-2.7-3.4L18.4,20.1
				c-0.3-1.1-0.5-2.1-0.5-2.9c0-2.4,0.9-4.3,2.7-5.6c1.8-1.3,3.6-2,5.4-2c1.6,0,3.1,0.4,4.4,1.2c1.3,0.8,2.2,2,2.7,3.4l49.2,143.4
				l-2.7,0.2l42.6-106.2c0.5-1.5,1.3-2.7,2.6-3.5c1.2-0.9,2.6-1.3,4.3-1.1c1.6-0.2,3.1,0.2,4.3,1.1c1.2,0.9,2.2,2.1,2.8,3.5
				l41.9,105.7l-2.4,1l49-144.2c0.5-1.5,1.4-2.6,2.7-3.4C228.4,10,230,9.5,231.8,9.5z"/>
			<path class="st2" d="M356.6,29.1l-59.5,147.6c-0.7,1.6-1.6,2.9-2.7,3.7c-1.1,0.8-2.4,1.2-3.9,1.2c-2.4,0-4.2-0.6-5.4-1.8
				c-1.1-1.2-1.7-2.7-1.7-4.5c-0.2-0.8-0.1-1.8,0.2-2.9l64.6-158.1c0.6-1.8,1.6-3.1,2.8-3.8c1.2-0.7,2.7-1.1,4.3-1.1
				c1.8,0,3.3,0.5,4.5,1.3c1.2,0.9,2.2,2.1,2.8,3.5l64.4,157.4c0.3,1,0.5,2,0.5,2.9c0,2.3-0.7,4-2.2,5.3c-1.5,1.2-3.2,1.8-5.1,1.8
				c-1.6,0-3.1-0.4-4.3-1.3c-1.2-0.9-2.2-2.1-2.8-3.5L352.2,27.9L356.6,29.1z M311.3,131.9l6.1-14.4h75.9l2.9,14.4H311.3z"/>
		</g>
		<g style="clip-path:url(#SVGID_00000088836568060944130760000017739856613774370485_);">
			<path class="st2" d="M636.9,9.1c2.1,0,3.9,0.8,5.3,2.4c1.4,1.6,2.1,3.3,2.1,4.9c0,0.8-0.1,1.6-0.4,2.4c-0.2,0.8-0.6,1.6-1.1,2.2
				l-57.5,79.1l2.9-9.5V174c0,2-0.7,3.7-2.2,5.1c-1.5,1.5-3.3,2.2-5.4,2.2c-2.1,0-3.9-0.7-5.4-2.2c-1.5-1.5-2.2-3.2-2.2-5.1V92.3
				l1.5,5.9l-56.1-76.6c-0.7-0.8-1.1-1.7-1.5-2.6c-0.3-0.9-0.5-1.8-0.5-2.6c0-2.1,0.9-3.9,2.6-5.3c1.7-1.4,3.5-2.1,5.3-2.1
				c2.4,0,4.5,1.1,6.1,3.4L583,84.2l-3.7-0.5l51.2-71C632.1,10.3,634.3,9.1,636.9,9.1z"/>
		</g>
	</g>
	<g>
		<path class="st0" d="M231.8,9.5c2,0,3.8,0.6,5.4,1.8c1.6,1.2,2.4,3.1,2.4,5.5c0,1-0.2,2-0.5,3.2L185,176.7
			c-0.5,1.5-1.4,2.6-2.7,3.4c-1.3,0.8-2.6,1.2-3.9,1.2c-1.6,0-3.1-0.4-4.4-1.1c-1.3-0.7-2.3-1.9-2.9-3.5L127.8,69.5l2,0.5
			L86.4,176.7c-0.7,1.6-1.7,2.8-3.1,3.5c-1.4,0.7-2.8,1.1-4.3,1.1c-1.3,0-2.6-0.4-3.9-1.2c-1.3-0.8-2.2-2-2.7-3.4L18.4,20.1
			c-0.3-1.1-0.5-2.1-0.5-2.9c0-2.4,0.9-4.3,2.7-5.6c1.8-1.3,3.6-2,5.4-2c1.6,0,3.1,0.4,4.4,1.2c1.3,0.8,2.2,2,2.7,3.4l49.2,143.4
			l-2.7,0.2l42.6-106.2c0.5-1.5,1.3-2.7,2.6-3.5c1.2-0.9,2.6-1.3,4.3-1.1c1.6-0.2,3.1,0.2,4.3,1.1c1.2,0.9,2.2,2.1,2.8,3.5
			l41.9,105.7l-2.4,1l49-144.2c0.5-1.5,1.4-2.6,2.7-3.4C228.4,10,230,9.5,231.8,9.5z"/>
		<path class="st0" d="M356.6,29.1l-59.5,147.6c-0.7,1.6-1.6,2.9-2.7,3.7c-1.1,0.8-2.4,1.2-3.9,1.2c-2.4,0-4.2-0.6-5.4-1.8
			c-1.1-1.2-1.7-2.7-1.7-4.5c-0.2-0.8-0.1-1.8,0.2-2.9l64.6-158.1c0.6-1.8,1.6-3.1,2.8-3.8c1.2-0.7,2.7-1.1,4.3-1.1
			c1.8,0,3.3,0.5,4.5,1.3c1.2,0.9,2.2,2.1,2.8,3.5l64.4,157.4c0.3,1,0.5,2,0.5,2.9c0,2.3-0.7,4-2.2,5.3c-1.5,1.2-3.2,1.8-5.1,1.8
			c-1.6,0-3.1-0.4-4.3-1.3c-1.2-0.9-2.2-2.1-2.8-3.5L352.2,27.9L356.6,29.1z M311.3,131.9l6.1-14.4h75.9l2.9,14.4H311.3z"/>
	</g>
	<g>
		<path class="st0" d="M636.9,9.1c2.1,0,3.9,0.8,5.3,2.4c1.4,1.6,2.1,3.3,2.1,4.9c0,0.8-0.1,1.6-0.4,2.4c-0.2,0.8-0.6,1.6-1.1,2.2
			l-57.5,79.1l2.9-9.5V174c0,2-0.7,3.7-2.2,5.1c-1.5,1.5-3.3,2.2-5.4,2.2c-2.1,0-3.9-0.7-5.4-2.2c-1.5-1.5-2.2-3.2-2.2-5.1V92.3
			l1.5,5.9l-56.1-76.6c-0.7-0.8-1.1-1.7-1.5-2.6c-0.3-0.9-0.5-1.8-0.5-2.6c0-2.1,0.9-3.9,2.6-5.3c1.7-1.4,3.5-2.1,5.3-2.1
			c2.4,0,4.5,1.1,6.1,3.4L583,84.2l-3.7-0.5l51.2-71C632.1,10.3,634.3,9.1,636.9,9.1z"/>
	</g>
	<g>
		<defs>
			<rect id="SVGID_00000148640777668493245160000006494744040910155404_" x="-3.6" y="-23.8" width="979.9" height="799.8"/>
		</defs>
		<clipPath id="SVGID_00000062184061229761092830000012624399743022109074_">
			<use xlink:href="#SVGID_00000148640777668493245160000006494744040910155404_"  style="overflow:visible;"/>
		</clipPath>
		<g style="clip-path:url(#SVGID_00000062184061229761092830000012624399743022109074_);">
		</g>
		<g style="clip-path:url(#SVGID_00000062184061229761092830000012624399743022109074_);">
			<path class="st2" d="M50.7,299.4c-2,0-3.7-0.6-5.1-2c-1.5-1.3-2.2-2.9-2.2-4.9c0-2.1,0.7-3.8,2.2-5.1c1.5-1.3,3.2-2,5.1-2h116.3
				c2.1,0,3.9,0.7,5.4,2c1.5,1.3,2.2,3,2.2,5.1c0,2.1-0.7,3.8-2.2,5c-1.5,1.2-3.3,1.8-5.4,1.8H50.7z M108.9,456.7
				c-2.3,0-4.2-0.7-5.6-2.2c-1.5-1.5-2.2-3.2-2.2-5.1V293.5h15.4v155.9c0,2-0.7,3.7-2.2,5.1C112.8,456,111,456.7,108.9,456.7z"/>
			<path class="st2" d="M397.7,371.1c0,12.9-2,24.7-6,35.4c-4,10.7-9.7,20-17,27.9c-7.3,7.9-16,14-26.1,18.4
				c-10,4.3-21,6.5-32.9,6.5c-12.1,0-23.1-2.2-33-6.5c-10-4.3-18.6-10.4-25.9-18.4c-7.3-7.9-13.1-17.2-17.1-27.9
				c-4.1-10.7-6.1-22.5-6.1-35.4c0-12.9,2-24.7,6.1-35.4c4.1-10.7,9.8-20,17.1-27.9c7.3-7.9,16-14,25.9-18.4c10-4.3,21-6.5,33-6.5
				c11.9,0,22.9,2.2,32.9,6.5c10,4.3,18.7,10.4,26.1,18.4c7.3,7.9,13,17.2,17,27.9C395.7,346.4,397.7,358.2,397.7,371.1z
				 M382.1,371.1c0-14.5-2.9-27.3-8.6-38.3c-5.7-11-13.5-19.6-23.4-25.8c-9.9-6.2-21.3-9.3-34.4-9.3c-12.9,0-24.4,3.1-34.4,9.3
				c-10,6.2-17.9,14.8-23.5,25.8c-5.6,11-8.4,23.8-8.4,38.3c0,14.5,2.8,27.3,8.4,38.3c5.6,11,13.5,19.6,23.5,25.8
				c10,6.2,21.5,9.3,34.4,9.3c13.1,0,24.5-3.1,34.4-9.3c9.9-6.2,17.7-14.8,23.4-25.8C379.2,398.4,382.1,385.6,382.1,371.1z"/>
		</g>
		<g style="clip-path:url(#SVGID_00000062184061229761092830000012624399743022109074_);">
			<path class="st2" d="M667.9,371.1c0,12.9-2,24.7-6,35.4c-4,10.7-9.7,20-17,27.9c-7.3,7.9-16,14-26.1,18.4s-21,6.5-32.9,6.5
				c-12.1,0-23.1-2.2-33-6.5c-10-4.3-18.6-10.4-25.9-18.4c-7.3-7.9-13.1-17.2-17.1-27.9c-4.1-10.7-6.1-22.5-6.1-35.4
				c0-12.9,2-24.7,6.1-35.4c4.1-10.7,9.8-20,17.1-27.9c7.3-7.9,16-14,25.9-18.4c10-4.3,21-6.5,33-6.5c11.9,0,22.9,2.2,32.9,6.5
				c10,4.3,18.7,10.4,26.1,18.4c7.3,7.9,13,17.2,17,27.9C665.9,346.4,667.9,358.2,667.9,371.1z M652.3,371.1
				c0-14.5-2.9-27.3-8.6-38.3c-5.7-11-13.5-19.6-23.4-25.8c-9.9-6.2-21.3-9.3-34.4-9.3c-12.9,0-24.4,3.1-34.4,9.3
				c-10,6.2-17.9,14.8-23.5,25.8c-5.6,11-8.4,23.8-8.4,38.3c0,14.5,2.8,27.3,8.4,38.3c5.6,11,13.5,19.6,23.5,25.8
				c10,6.2,21.5,9.3,34.4,9.3c13.1,0,24.5-3.1,34.4-9.3c9.9-6.2,17.7-14.8,23.4-25.8C649.4,398.4,652.3,385.6,652.3,371.1z"/>
		</g>
	</g>
	<g>
	</g>
	<g>
		<path class="st0" d="M50.7,299.4c-2,0-3.7-0.6-5.1-2c-1.5-1.3-2.2-2.9-2.2-4.9c0-2.1,0.7-3.8,2.2-5.1c1.5-1.3,3.2-2,5.1-2h116.3
			c2.1,0,3.9,0.7,5.4,2c1.5,1.3,2.2,3,2.2,5.1c0,2.1-0.7,3.8-2.2,5c-1.5,1.2-3.3,1.8-5.4,1.8H50.7z M108.9,456.7
			c-2.3,0-4.2-0.7-5.6-2.2c-1.5-1.5-2.2-3.2-2.2-5.1V293.5h15.4v155.9c0,2-0.7,3.7-2.2,5.1C112.8,456,111,456.7,108.9,456.7z"/>
		<path class="st0" d="M397.7,371.1c0,12.9-2,24.7-6,35.4c-4,10.7-9.7,20-17,27.9c-7.3,7.9-16,14-26.1,18.4c-10,4.3-21,6.5-32.9,6.5
			c-12.1,0-23.1-2.2-33-6.5c-10-4.3-18.6-10.4-25.9-18.4c-7.3-7.9-13.1-17.2-17.1-27.9c-4.1-10.7-6.1-22.5-6.1-35.4
			c0-12.9,2-24.7,6.1-35.4c4.1-10.7,9.8-20,17.1-27.9c7.3-7.9,16-14,25.9-18.4c10-4.3,21-6.5,33-6.5c11.9,0,22.9,2.2,32.9,6.5
			c10,4.3,18.7,10.4,26.1,18.4c7.3,7.9,13,17.2,17,27.9C395.7,346.4,397.7,358.2,397.7,371.1z M382.1,371.1
			c0-14.5-2.9-27.3-8.6-38.3c-5.7-11-13.5-19.6-23.4-25.8c-9.9-6.2-21.3-9.3-34.4-9.3c-12.9,0-24.4,3.1-34.4,9.3
			c-10,6.2-17.9,14.8-23.5,25.8c-5.6,11-8.4,23.8-8.4,38.3c0,14.5,2.8,27.3,8.4,38.3c5.6,11,13.5,19.6,23.5,25.8
			c10,6.2,21.5,9.3,34.4,9.3c13.1,0,24.5-3.1,34.4-9.3c9.9-6.2,17.7-14.8,23.4-25.8C379.2,398.4,382.1,385.6,382.1,371.1z"/>
	</g>
	<g>
		<path class="st0" d="M667.9,371.1c0,12.9-2,24.7-6,35.4c-4,10.7-9.7,20-17,27.9c-7.3,7.9-16,14-26.1,18.4s-21,6.5-32.9,6.5
			c-12.1,0-23.1-2.2-33-6.5c-10-4.3-18.6-10.4-25.9-18.4c-7.3-7.9-13.1-17.2-17.1-27.9c-4.1-10.7-6.1-22.5-6.1-35.4
			c0-12.9,2-24.7,6.1-35.4c4.1-10.7,9.8-20,17.1-27.9c7.3-7.9,16-14,25.9-18.4c10-4.3,21-6.5,33-6.5c11.9,0,22.9,2.2,32.9,6.5
			c10,4.3,18.7,10.4,26.1,18.4c7.3,7.9,13,17.2,17,27.9C665.9,346.4,667.9,358.2,667.9,371.1z M652.3,371.1
			c0-14.5-2.9-27.3-8.6-38.3c-5.7-11-13.5-19.6-23.4-25.8c-9.9-6.2-21.3-9.3-34.4-9.3c-12.9,0-24.4,3.1-34.4,9.3
			c-10,6.2-17.9,14.8-23.5,25.8c-5.6,11-8.4,23.8-8.4,38.3c0,14.5,2.8,27.3,8.4,38.3c5.6,11,13.5,19.6,23.5,25.8
			c10,6.2,21.5,9.3,34.4,9.3c13.1,0,24.5-3.1,34.4-9.3c9.9-6.2,17.7-14.8,23.4-25.8C649.4,398.4,652.3,385.6,652.3,371.1z"/>
	</g>
	<g>
		<defs>
			<rect id="SVGID_00000086693919703213724730000014748626661114839453_" x="-3.6" y="-23.8" width="979.9" height="799.8"/>
		</defs>
		<clipPath id="SVGID_00000147180039199218489280000017231795449287886498_">
			<use xlink:href="#SVGID_00000086693919703213724730000014748626661114839453_"  style="overflow:visible;"/>
		</clipPath>
		<g style="clip-path:url(#SVGID_00000147180039199218489280000017231795449287886498_);">
		</g>
		<g style="clip-path:url(#SVGID_00000147180039199218489280000017231795449287886498_);">
			<path class="st2" d="M105.2,734.6c-12.4,0.2-23.2-1.8-32.3-5.8c-9.1-4-17.9-10.1-26.2-18.2c-0.8-0.8-1.5-1.7-2.1-2.7
				c-0.6-1-0.9-2.1-0.9-3.4c0-2,0.8-3.8,2.3-5.4c1.5-1.6,3.3-2.4,5.3-2.4s3.8,0.8,5.4,2.4c6.4,6.9,13.6,12.1,21.7,15.7
				c8.1,3.6,16.8,5.4,26.1,5.4c7.8,0,14.8-1.2,20.9-3.7c6.1-2.4,11-6,14.6-10.5c3.6-4.6,5.4-9.9,5.4-15.9
				c-0.2-7.5-2.2-13.5-6.2-18.1c-4-4.6-9.3-8.4-16-11.5c-6.7-3.1-14.1-5.8-22.3-8.1c-6.7-2.1-13.1-4.4-19.2-7
				c-6.1-2.5-11.5-5.6-16.2-9.3c-4.7-3.7-8.3-8.2-10.9-13.6c-2.6-5.4-3.9-11.8-3.9-19.3c0-8.6,2.3-16.4,6.9-23.1
				c4.6-6.8,11.1-12.1,19.5-15.9c8.4-3.8,18.2-5.8,29.2-5.8c9.6,0,18.9,1.6,27.8,4.9c8.9,3.3,15.9,8.1,21.2,14.4
				c2.4,2.6,3.7,5,3.7,7.1c0,1.8-0.8,3.5-2.4,5c-1.6,1.6-3.4,2.3-5.4,2.3c-1.6,0-3-0.6-4.2-1.7c-2.8-3.4-6.3-6.5-10.5-9.2
				c-4.2-2.7-8.9-4.8-14.1-6.2s-10.5-2.2-16-2.2c-7.7,0-14.6,1.2-20.7,3.5c-6.1,2.4-10.9,5.8-14.4,10.2c-3.5,4.4-5.3,9.8-5.3,16.2
				c0,6.9,2,12.4,5.9,16.8c3.9,4.3,9.1,7.9,15.4,10.8c6.4,2.9,13.1,5.5,20.3,8c7,2,13.7,4.2,20.2,6.7c6.4,2.5,12.2,5.7,17.1,9.4
				c5,3.8,8.9,8.5,11.7,14.2c2.9,5.7,4.3,12.9,4.3,21.5c0,8.3-2.4,15.8-7.1,22.5c-4.7,6.7-11.2,12-19.5,15.9
				C126,732.3,116.3,734.4,105.2,734.6z"/>
			<path class="st2" d="M382.6,646.4c0,12.9-2,24.7-6,35.4c-4,10.7-9.7,20-17,27.9c-7.3,7.9-16,14-26.1,18.4
				c-10,4.3-21,6.5-32.9,6.5c-12.1,0-23.1-2.2-33-6.5c-10-4.3-18.6-10.4-25.9-18.4c-7.3-7.9-13.1-17.2-17.1-27.9
				c-4.1-10.7-6.1-22.5-6.1-35.4c0-12.9,2-24.7,6.1-35.4c4.1-10.7,9.8-20,17.1-27.9c7.3-7.9,16-14,25.9-18.4c10-4.3,21-6.5,33-6.5
				c11.9,0,22.9,2.2,32.9,6.5c10,4.3,18.7,10.4,26.1,18.4c7.3,7.9,13,17.2,17,27.9C380.6,621.8,382.6,633.5,382.6,646.4z
				 M366.9,646.4c0-14.5-2.9-27.3-8.6-38.3c-5.7-11-13.5-19.6-23.4-25.8c-9.9-6.2-21.3-9.3-34.4-9.3c-12.9,0-24.4,3.1-34.4,9.3
				c-10,6.2-17.9,14.8-23.5,25.8c-5.6,11-8.4,23.8-8.4,38.3c0,14.5,2.8,27.3,8.4,38.3c5.6,11,13.5,19.6,23.5,25.8
				c10,6.2,21.5,9.3,34.4,9.3c13.1,0,24.5-3.1,34.4-9.3c9.9-6.2,17.7-14.8,23.4-25.8C364,673.7,366.9,661,366.9,646.4z"/>
		</g>
		<g style="clip-path:url(#SVGID_00000147180039199218489280000017231795449287886498_);">
			<path class="st2" d="M670.1,646.4c0,12.9-2,24.7-6,35.4c-4,10.7-9.7,20-17,27.9c-7.3,7.9-16,14-26.1,18.4s-21,6.5-32.9,6.5
				c-12.1,0-23.1-2.2-33-6.5c-10-4.3-18.6-10.4-25.9-18.4c-7.3-7.9-13.1-17.2-17.1-27.9c-4.1-10.7-6.1-22.5-6.1-35.4
				c0-12.9,2-24.7,6.1-35.4c4.1-10.7,9.8-20,17.1-27.9c7.3-7.9,16-14,25.9-18.4c10-4.3,21-6.5,33-6.5c11.9,0,22.9,2.2,32.9,6.5
				c10,4.3,18.7,10.4,26.1,18.4c7.3,7.9,13,17.2,17,27.9C668.1,621.8,670.1,633.5,670.1,646.4z M654.5,646.4
				c0-14.5-2.9-27.3-8.6-38.3c-5.7-11-13.5-19.6-23.4-25.8c-9.9-6.2-21.3-9.3-34.4-9.3c-12.9,0-24.4,3.1-34.4,9.3
				c-10,6.2-17.9,14.8-23.5,25.8c-5.6,11-8.4,23.8-8.4,38.3c0,14.5,2.8,27.3,8.4,38.3c5.6,11,13.5,19.6,23.5,25.8
				c10,6.2,21.5,9.3,34.4,9.3c13.1,0,24.5-3.1,34.4-9.3c9.9-6.2,17.7-14.8,23.4-25.8C651.6,673.7,654.5,661,654.5,646.4z"/>
		</g>
	</g>
	<g>
	</g>
	<g>
		<path class="st0" d="M105.2,734.6c-12.4,0.2-23.2-1.8-32.3-5.8c-9.1-4-17.9-10.1-26.2-18.2c-0.8-0.8-1.5-1.7-2.1-2.7
			c-0.6-1-0.9-2.1-0.9-3.4c0-2,0.8-3.8,2.3-5.4c1.5-1.6,3.3-2.4,5.3-2.4s3.8,0.8,5.4,2.4c6.4,6.9,13.6,12.1,21.7,15.7
			c8.1,3.6,16.8,5.4,26.1,5.4c7.8,0,14.8-1.2,20.9-3.7c6.1-2.4,11-6,14.6-10.5c3.6-4.6,5.4-9.9,5.4-15.9c-0.2-7.5-2.2-13.5-6.2-18.1
			c-4-4.6-9.3-8.4-16-11.5c-6.7-3.1-14.1-5.8-22.3-8.1c-6.7-2.1-13.1-4.4-19.2-7c-6.1-2.5-11.5-5.6-16.2-9.3
			c-4.7-3.7-8.3-8.2-10.9-13.6c-2.6-5.4-3.9-11.8-3.9-19.3c0-8.6,2.3-16.4,6.9-23.1c4.6-6.8,11.1-12.1,19.5-15.9
			c8.4-3.8,18.2-5.8,29.2-5.8c9.6,0,18.9,1.6,27.8,4.9c8.9,3.3,15.9,8.1,21.2,14.4c2.4,2.6,3.7,5,3.7,7.1c0,1.8-0.8,3.5-2.4,5
			c-1.6,1.6-3.4,2.3-5.4,2.3c-1.6,0-3-0.6-4.2-1.7c-2.8-3.4-6.3-6.5-10.5-9.2c-4.2-2.7-8.9-4.8-14.1-6.2s-10.5-2.2-16-2.2
			c-7.7,0-14.6,1.2-20.7,3.5c-6.1,2.4-10.9,5.8-14.4,10.2c-3.5,4.4-5.3,9.8-5.3,16.2c0,6.9,2,12.4,5.9,16.8
			c3.9,4.3,9.1,7.9,15.4,10.8c6.4,2.9,13.1,5.5,20.3,8c7,2,13.7,4.2,20.2,6.7c6.4,2.5,12.2,5.7,17.1,9.4c5,3.8,8.9,8.5,11.7,14.2
			c2.9,5.7,4.3,12.9,4.3,21.5c0,8.3-2.4,15.8-7.1,22.5c-4.7,6.7-11.2,12-19.5,15.9C126,732.3,116.3,734.4,105.2,734.6z"/>
		<path class="st0" d="M382.6,646.4c0,12.9-2,24.7-6,35.4c-4,10.7-9.7,20-17,27.9c-7.3,7.9-16,14-26.1,18.4c-10,4.3-21,6.5-32.9,6.5
			c-12.1,0-23.1-2.2-33-6.5c-10-4.3-18.6-10.4-25.9-18.4c-7.3-7.9-13.1-17.2-17.1-27.9c-4.1-10.7-6.1-22.5-6.1-35.4
			c0-12.9,2-24.7,6.1-35.4c4.1-10.7,9.8-20,17.1-27.9c7.3-7.9,16-14,25.9-18.4c10-4.3,21-6.5,33-6.5c11.9,0,22.9,2.2,32.9,6.5
			c10,4.3,18.7,10.4,26.1,18.4c7.3,7.9,13,17.2,17,27.9C380.6,621.8,382.6,633.5,382.6,646.4z M366.9,646.4
			c0-14.5-2.9-27.3-8.6-38.3c-5.7-11-13.5-19.6-23.4-25.8c-9.9-6.2-21.3-9.3-34.4-9.3c-12.9,0-24.4,3.1-34.4,9.3
			c-10,6.2-17.9,14.8-23.5,25.8c-5.6,11-8.4,23.8-8.4,38.3c0,14.5,2.8,27.3,8.4,38.3c5.6,11,13.5,19.6,23.5,25.8
			c10,6.2,21.5,9.3,34.4,9.3c13.1,0,24.5-3.1,34.4-9.3c9.9-6.2,17.7-14.8,23.4-25.8C364,673.7,366.9,661,366.9,646.4z"/>
	</g>
	<g>
		<path class="st0" d="M670.1,646.4c0,12.9-2,24.7-6,35.4c-4,10.7-9.7,20-17,27.9c-7.3,7.9-16,14-26.1,18.4s-21,6.5-32.9,6.5
			c-12.1,0-23.1-2.2-33-6.5c-10-4.3-18.6-10.4-25.9-18.4c-7.3-7.9-13.1-17.2-17.1-27.9c-4.1-10.7-6.1-22.5-6.1-35.4
			c0-12.9,2-24.7,6.1-35.4c4.1-10.7,9.8-20,17.1-27.9c7.3-7.9,16-14,25.9-18.4c10-4.3,21-6.5,33-6.5c11.9,0,22.9,2.2,32.9,6.5
			c10,4.3,18.7,10.4,26.1,18.4c7.3,7.9,13,17.2,17,27.9C668.1,621.8,670.1,633.5,670.1,646.4z M654.5,646.4
			c0-14.5-2.9-27.3-8.6-38.3c-5.7-11-13.5-19.6-23.4-25.8c-9.9-6.2-21.3-9.3-34.4-9.3c-12.9,0-24.4,3.1-34.4,9.3
			c-10,6.2-17.9,14.8-23.5,25.8c-5.6,11-8.4,23.8-8.4,38.3c0,14.5,2.8,27.3,8.4,38.3c5.6,11,13.5,19.6,23.5,25.8
			c10,6.2,21.5,9.3,34.4,9.3c13.1,0,24.5-3.1,34.4-9.3c9.9-6.2,17.7-14.8,23.4-25.8C651.6,673.7,654.5,661,654.5,646.4z"/>
	</g>
	<g>
		<defs>
			<rect id="SVGID_00000169545037729873093300000009669501843972831933_" x="-3.6" y="-23.8" width="979.9" height="799.8"/>
		</defs>
		<clipPath id="SVGID_00000139261720262959827980000018387321048794992059_">
			<use xlink:href="#SVGID_00000169545037729873093300000009669501843972831933_"  style="overflow:visible;"/>
		</clipPath>
		<g style="clip-path:url(#SVGID_00000139261720262959827980000018387321048794992059_);">
			<path class="st6" d="M894.8,560.8c2.1,0,3.8,0.7,5,2c1.2,1.3,1.8,2.9,1.8,4.9v156.6c0,2.4-0.8,4.4-2.3,5.8
				c-1.6,1.4-3.3,2.1-5.3,2.1c-1.1,0-2.2-0.2-3.3-0.6c-1.1-0.4-1.9-1-2.6-1.8L779.1,582.8l4.2-2.4v145.1c0,1.8-0.7,3.3-2,4.7
				c-1.3,1.3-2.9,2-4.9,2c-2.1,0-3.8-0.7-5-2c-1.2-1.3-1.8-2.9-1.8-4.7V568.1c0-2.3,0.7-4.1,2.1-5.4c1.4-1.3,3.1-2,5-2
				c1,0,2,0.2,3.2,0.6c1.1,0.4,2,1.1,2.7,2.1l107.9,145.4l-2.4,4.4V567.6c0-2,0.7-3.6,2-4.9C891.2,561.4,892.9,560.8,894.8,560.8z"
				/>
		</g>
	</g>
	<g>
		<path class="st7" d="M894.8,560.8c2.1,0,3.8,0.7,5,2c1.2,1.3,1.8,2.9,1.8,4.9v156.6c0,2.4-0.8,4.4-2.3,5.8
			c-1.6,1.4-3.3,2.1-5.3,2.1c-1.1,0-2.2-0.2-3.3-0.6c-1.1-0.4-1.9-1-2.6-1.8L779.1,582.8l4.2-2.4v145.1c0,1.8-0.7,3.3-2,4.7
			c-1.3,1.3-2.9,2-4.9,2c-2.1,0-3.8-0.7-5-2c-1.2-1.3-1.8-2.9-1.8-4.7V568.1c0-2.3,0.7-4.1,2.1-5.4c1.4-1.3,3.1-2,5-2
			c1,0,2,0.2,3.2,0.6c1.1,0.4,2,1.1,2.7,2.1l107.9,145.4l-2.4,4.4V567.6c0-2,0.7-3.6,2-4.9C891.2,561.4,892.9,560.8,894.8,560.8z"/>
	</g>
</g>
</svg>
