<svg width="13.5mm" height="13.5mm" version="1.1" viewBox="0 0 13.5 13.5" xmlns="http://www.w3.org/2000/svg"><path d="M0,0H0.3V0.3H0zM0.3,0H0.6V0.3H0.3zM0.6,0H0.9V0.3H0.6zM0.9,0H1.2V0.3H0.9zM1.2,0H1.5V0.3H1.2zM1.5,0H1.8V0.3H1.5zM1.8,0H2.1V0.3H1.8zM2.7,0H3V0.3H2.7zM3,0H3.3V0.3H3zM3.6,0H3.9V0.3H3.6zM3.9,0H4.2V0.3H3.9zM4.5,0H4.8V0.3H4.5zM4.8,0H5.1V0.3H4.8zM5.1,0H5.4V0.3H5.1zM6.9,0H7.2V0.3H6.9zM8.1,0H8.4V0.3H8.1zM8.4,0H8.7V0.3H8.4zM8.7,0H9V0.3H8.7zM9,0H9.3V0.3H9zM10.8,0H11.1V0.3H10.8zM11.4,0H11.7V0.3H11.4zM11.7,0H12V0.3H11.7zM12,0H12.3V0.3H12zM12.3,0H12.6V0.3H12.3zM12.6,0H12.9V0.3H12.6zM12.9,0H13.2V0.3H12.9zM13.2,0H13.5V0.3H13.2zM0,0.3H0.3V0.6H0zM1.8,0.3H2.1V0.6H1.8zM2.4,0.3H2.7V0.6H2.4zM3.3,0.3H3.6V0.6H3.3zM3.9,0.3H4.2V0.6H3.9zM4.2,0.3H4.5V0.6H4.2zM4.8,0.3H5.1V0.6H4.8zM5.1,0.3H5.4V0.6H5.1zM5.4,0.3H5.7V0.6H5.4zM6.6,0.3H6.9V0.6H6.6zM6.9,0.3H7.2V0.6H6.9zM7.8,0.3H8.1V0.6H7.8zM8.4,0.3H8.7V0.6H8.4zM8.7,0.3H9V0.6H8.7zM9.3,0.3H9.6V0.6H9.3zM9.6,0.3H9.9V0.6H9.6zM9.9,0.3H10.2V0.6H9.9zM10.5,0.3H10.8V0.6H10.5zM11.4,0.3H11.7V0.6H11.4zM13.2,0.3H13.5V0.6H13.2zM0,0.6H0.3V0.9H0zM0.6,0.6H0.9V0.9H0.6zM0.9,0.6H1.2V0.9H0.9zM1.2,0.6H1.5V0.9H1.2zM1.8,0.6H2.1V0.9H1.8zM3,0.6H3.3V0.9H3zM3.3,0.6H3.6V0.9H3.3zM4.8,0.6H5.1V0.9H4.8zM5.1,0.6H5.4V0.9H5.1zM5.4,0.6H5.7V0.9H5.4zM5.7,0.6H6V0.9H5.7zM6,0.6H6.3V0.9H6zM6.6,0.6H6.9V0.9H6.6zM7.2,0.6H7.5V0.9H7.2zM8.4,0.6H8.7V0.9H8.4zM9.6,0.6H9.9V0.9H9.6zM9.9,0.6H10.2V0.9H9.9zM10.5,0.6H10.8V0.9H10.5zM11.4,0.6H11.7V0.9H11.4zM12,0.6H12.3V0.9H12zM12.3,0.6H12.6V0.9H12.3zM12.6,0.6H12.9V0.9H12.6zM13.2,0.6H13.5V0.9H13.2zM0,0.9H0.3V1.2H0zM0.6,0.9H0.9V1.2H0.6zM0.9,0.9H1.2V1.2H0.9zM1.2,0.9H1.5V1.2H1.2zM1.8,0.9H2.1V1.2H1.8zM3.3,0.9H3.6V1.2H3.3zM3.9,0.9H4.2V1.2H3.9zM5.1,0.9H5.4V1.2H5.1zM5.7,0.9H6V1.2H5.7zM6,0.9H6.3V1.2H6zM6.3,0.9H6.6V1.2H6.3zM6.9,0.9H7.2V1.2H6.9zM7.5,0.9H7.8V1.2H7.5zM8.1,0.9H8.4V1.2H8.1zM9.6,0.9H9.9V1.2H9.6zM9.9,0.9H10.2V1.2H9.9zM10.5,0.9H10.8V1.2H10.5zM10.8,0.9H11.1V1.2H10.8zM11.4,0.9H11.7V1.2H11.4zM12,0.9H12.3V1.2H12zM12.3,0.9H12.6V1.2H12.3zM12.6,0.9H12.9V1.2H12.6zM13.2,0.9H13.5V1.2H13.2zM0,1.2H0.3V1.5H0zM0.6,1.2H0.9V1.5H0.6zM0.9,1.2H1.2V1.5H0.9zM1.2,1.2H1.5V1.5H1.2zM1.8,1.2H2.1V1.5H1.8zM2.4,1.2H2.7V1.5H2.4zM2.7,1.2H3V1.5H2.7zM3,1.2H3.3V1.5H3zM3.9,1.2H4.2V1.5H3.9zM4.5,1.2H4.8V1.5H4.5zM4.8,1.2H5.1V1.5H4.8zM5.1,1.2H5.4V1.5H5.1zM5.4,1.2H5.7V1.5H5.4zM5.7,1.2H6V1.5H5.7zM6,1.2H6.3V1.5H6zM6.3,1.2H6.6V1.5H6.3zM6.6,1.2H6.9V1.5H6.6zM6.9,1.2H7.2V1.5H6.9zM7.2,1.2H7.5V1.5H7.2zM7.5,1.2H7.8V1.5H7.5zM8.4,1.2H8.7V1.5H8.4zM8.7,1.2H9V1.5H8.7zM9,1.2H9.3V1.5H9zM9.6,1.2H9.9V1.5H9.6zM10.2,1.2H10.5V1.5H10.2zM10.5,1.2H10.8V1.5H10.5zM10.8,1.2H11.1V1.5H10.8zM11.4,1.2H11.7V1.5H11.4zM12,1.2H12.3V1.5H12zM12.3,1.2H12.6V1.5H12.3zM12.6,1.2H12.9V1.5H12.6zM13.2,1.2H13.5V1.5H13.2zM0,1.5H0.3V1.8H0zM1.8,1.5H2.1V1.8H1.8zM2.7,1.5H3V1.8H2.7zM3.3,1.5H3.6V1.8H3.3zM3.6,1.5H3.9V1.8H3.6zM3.9,1.5H4.2V1.8H3.9zM4.2,1.5H4.5V1.8H4.2zM4.5,1.5H4.8V1.8H4.5zM4.8,1.5H5.1V1.8H4.8zM5.1,1.5H5.4V1.8H5.1zM5.7,1.5H6V1.8H5.7zM6,1.5H6.3V1.8H6zM7.2,1.5H7.5V1.8H7.2zM7.5,1.5H7.8V1.8H7.5zM8.1,1.5H8.4V1.8H8.1zM9.3,1.5H9.6V1.8H9.3zM9.9,1.5H10.2V1.8H9.9zM11.4,1.5H11.7V1.8H11.4zM13.2,1.5H13.5V1.8H13.2zM0,1.8H0.3V2.1H0zM0.3,1.8H0.6V2.1H0.3zM0.6,1.8H0.9V2.1H0.6zM0.9,1.8H1.2V2.1H0.9zM1.2,1.8H1.5V2.1H1.2zM1.5,1.8H1.8V2.1H1.5zM1.8,1.8H2.1V2.1H1.8zM2.4,1.8H2.7V2.1H2.4zM3,1.8H3.3V2.1H3zM3.6,1.8H3.9V2.1H3.6zM4.2,1.8H4.5V2.1H4.2zM4.8,1.8H5.1V2.1H4.8zM5.4,1.8H5.7V2.1H5.4zM6,1.8H6.3V2.1H6zM6.6,1.8H6.9V2.1H6.6zM7.2,1.8H7.5V2.1H7.2zM7.8,1.8H8.1V2.1H7.8zM8.4,1.8H8.7V2.1H8.4zM9,1.8H9.3V2.1H9zM9.6,1.8H9.9V2.1H9.6zM10.2,1.8H10.5V2.1H10.2zM10.8,1.8H11.1V2.1H10.8zM11.4,1.8H11.7V2.1H11.4zM11.7,1.8H12V2.1H11.7zM12,1.8H12.3V2.1H12zM12.3,1.8H12.6V2.1H12.3zM12.6,1.8H12.9V2.1H12.6zM12.9,1.8H13.2V2.1H12.9zM13.2,1.8H13.5V2.1H13.2zM3.3,2.1H3.6V2.4H3.3zM3.9,2.1H4.2V2.4H3.9zM6,2.1H6.3V2.4H6zM7.2,2.1H7.5V2.4H7.2zM8.1,2.1H8.4V2.4H8.1zM9,2.1H9.3V2.4H9zM9.3,2.1H9.6V2.4H9.3zM9.9,2.1H10.2V2.4H9.9zM0,2.4H0.3V2.7H0zM0.6,2.4H0.9V2.7H0.6zM1.2,2.4H1.5V2.7H1.2zM1.8,2.4H2.1V2.7H1.8zM2.7,2.4H3V2.7H2.7zM3.3,2.4H3.6V2.7H3.3zM3.6,2.4H3.9V2.7H3.6zM4.2,2.4H4.5V2.7H4.2zM4.5,2.4H4.8V2.7H4.5zM5.4,2.4H5.7V2.7H5.4zM6,2.4H6.3V2.7H6zM6.3,2.4H6.6V2.7H6.3zM6.6,2.4H6.9V2.7H6.6zM6.9,2.4H7.2V2.7H6.9zM7.2,2.4H7.5V2.7H7.2zM7.5,2.4H7.8V2.7H7.5zM7.8,2.4H8.1V2.7H7.8zM8.1,2.4H8.4V2.7H8.1zM8.4,2.4H8.7V2.7H8.4zM8.7,2.4H9V2.7H8.7zM9,2.4H9.3V2.7H9zM9.6,2.4H9.9V2.7H9.6zM10.5,2.4H10.8V2.7H10.5zM12,2.4H12.3V2.7H12zM12.9,2.4H13.2V2.7H12.9zM0.3,2.7H0.6V3H0.3zM0.6,2.7H0.9V3H0.6zM1.2,2.7H1.5V3H1.2zM2.4,2.7H2.7V3H2.4zM3,2.7H3.3V3H3zM3.3,2.7H3.6V3H3.3zM3.9,2.7H4.2V3H3.9zM4.5,2.7H4.8V3H4.5zM4.8,2.7H5.1V3H4.8zM5.7,2.7H6V3H5.7zM6,2.7H6.3V3H6zM6.3,2.7H6.6V3H6.3zM6.9,2.7H7.2V3H6.9zM7.2,2.7H7.5V3H7.2zM8.1,2.7H8.4V3H8.1zM9.9,2.7H10.2V3H9.9zM10.5,2.7H10.8V3H10.5zM10.8,2.7H11.1V3H10.8zM11.1,2.7H11.4V3H11.1zM11.7,2.7H12V3H11.7zM12.6,2.7H12.9V3H12.6zM12.9,2.7H13.2V3H12.9zM0.3,3H0.6V3.3H0.3zM0.6,3H0.9V3.3H0.6zM0.9,3H1.2V3.3H0.9zM1.2,3H1.5V3.3H1.2zM1.5,3H1.8V3.3H1.5zM1.8,3H2.1V3.3H1.8zM2.1,3H2.4V3.3H2.1zM2.4,3H2.7V3.3H2.4zM3.3,3H3.6V3.3H3.3zM3.9,3H4.2V3.3H3.9zM4.5,3H4.8V3.3H4.5zM4.8,3H5.1V3.3H4.8zM5.1,3H5.4V3.3H5.1zM6,3H6.3V3.3H6zM6.3,3H6.6V3.3H6.3zM6.6,3H6.9V3.3H6.6zM7.2,3H7.5V3.3H7.2zM7.8,3H8.1V3.3H7.8zM8.1,3H8.4V3.3H8.1zM8.4,3H8.7V3.3H8.4zM8.7,3H9V3.3H8.7zM9,3H9.3V3.3H9zM9.3,3H9.6V3.3H9.3zM10.2,3H10.5V3.3H10.2zM10.8,3H11.1V3.3H10.8zM11.1,3H11.4V3.3H11.1zM12,3H12.3V3.3H12zM12.9,3H13.2V3.3H12.9zM13.2,3H13.5V3.3H13.2zM0,3.3H0.3V3.6H0zM0.9,3.3H1.2V3.6H0.9zM1.5,3.3H1.8V3.6H1.5zM2.7,3.3H3V3.6H2.7zM3,3.3H3.3V3.6H3zM3.6,3.3H3.9V3.6H3.6zM4.5,3.3H4.8V3.6H4.5zM4.8,3.3H5.1V3.6H4.8zM6,3.3H6.3V3.6H6zM6.3,3.3H6.6V3.6H6.3zM6.9,3.3H7.2V3.6H6.9zM7.5,3.3H7.8V3.6H7.5zM8.4,3.3H8.7V3.6H8.4zM9,3.3H9.3V3.6H9zM9.6,3.3H9.9V3.6H9.6zM9.9,3.3H10.2V3.6H9.9zM10.2,3.3H10.5V3.6H10.2zM10.5,3.3H10.8V3.6H10.5zM10.8,3.3H11.1V3.6H10.8zM11.7,3.3H12V3.6H11.7zM12.3,3.3H12.6V3.6H12.3zM12.9,3.3H13.2V3.6H12.9zM13.2,3.3H13.5V3.6H13.2zM0,3.6H0.3V3.9H0zM0.3,3.6H0.6V3.9H0.3zM1.5,3.6H1.8V3.9H1.5zM1.8,3.6H2.1V3.9H1.8zM3,3.6H3.3V3.9H3zM3.3,3.6H3.6V3.9H3.3zM3.9,3.6H4.2V3.9H3.9zM4.2,3.6H4.5V3.9H4.2zM5.1,3.6H5.4V3.9H5.1zM5.4,3.6H5.7V3.9H5.4zM7.2,3.6H7.5V3.9H7.2zM7.8,3.6H8.1V3.9H7.8zM9,3.6H9.3V3.9H9zM9.6,3.6H9.9V3.9H9.6zM10.8,3.6H11.1V3.9H10.8zM11.1,3.6H11.4V3.9H11.1zM11.4,3.6H11.7V3.9H11.4zM11.7,3.6H12V3.9H11.7zM13.2,3.6H13.5V3.9H13.2zM0,3.9H0.3V4.2H0zM0.6,3.9H0.9V4.2H0.6zM0.9,3.9H1.2V4.2H0.9zM1.2,3.9H1.5V4.2H1.2zM1.5,3.9H1.8V4.2H1.5zM2.1,3.9H2.4V4.2H2.1zM3.3,3.9H3.6V4.2H3.3zM3.6,3.9H3.9V4.2H3.6zM4.2,3.9H4.5V4.2H4.2zM4.8,3.9H5.1V4.2H4.8zM5.1,3.9H5.4V4.2H5.1zM5.4,3.9H5.7V4.2H5.4zM6,3.9H6.3V4.2H6zM6.3,3.9H6.6V4.2H6.3zM6.6,3.9H6.9V4.2H6.6zM6.9,3.9H7.2V4.2H6.9zM7.5,3.9H7.8V4.2H7.5zM8.1,3.9H8.4V4.2H8.1zM9,3.9H9.3V4.2H9zM9.3,3.9H9.6V4.2H9.3zM9.6,3.9H9.9V4.2H9.6zM9.9,3.9H10.2V4.2H9.9zM10.5,3.9H10.8V4.2H10.5zM11.7,3.9H12V4.2H11.7zM12.3,3.9H12.6V4.2H12.3zM12.6,3.9H12.9V4.2H12.6zM12.9,3.9H13.2V4.2H12.9zM0.3,4.2H0.6V4.5H0.3zM0.6,4.2H0.9V4.5H0.6zM1.2,4.2H1.5V4.5H1.2zM1.5,4.2H1.8V4.5H1.5zM1.8,4.2H2.1V4.5H1.8zM2.1,4.2H2.4V4.5H2.1zM3,4.2H3.3V4.5H3zM3.6,4.2H3.9V4.5H3.6zM4.2,4.2H4.5V4.5H4.2zM4.5,4.2H4.8V4.5H4.5zM5.4,4.2H5.7V4.5H5.4zM6,4.2H6.3V4.5H6zM6.6,4.2H6.9V4.5H6.6zM7.5,4.2H7.8V4.5H7.5zM8.1,4.2H8.4V4.5H8.1zM8.4,4.2H8.7V4.5H8.4zM9,4.2H9.3V4.5H9zM9.3,4.2H9.6V4.5H9.3zM9.6,4.2H9.9V4.5H9.6zM10.8,4.2H11.1V4.5H10.8zM11.1,4.2H11.4V4.5H11.1zM11.7,4.2H12V4.5H11.7zM12,4.2H12.3V4.5H12zM12.3,4.2H12.6V4.5H12.3zM12.6,4.2H12.9V4.5H12.6zM12.9,4.2H13.2V4.5H12.9zM0.3,4.5H0.6V4.8H0.3zM0.6,4.5H0.9V4.8H0.6zM1.2,4.5H1.5V4.8H1.2zM2.1,4.5H2.4V4.8H2.1zM3,4.5H3.3V4.8H3zM3.3,4.5H3.6V4.8H3.3zM3.6,4.5H3.9V4.8H3.6zM3.9,4.5H4.2V4.8H3.9zM5.1,4.5H5.4V4.8H5.1zM6.3,4.5H6.6V4.8H6.3zM6.9,4.5H7.2V4.8H6.9zM7.5,4.5H7.8V4.8H7.5zM7.8,4.5H8.1V4.8H7.8zM8.4,4.5H8.7V4.8H8.4zM8.7,4.5H9V4.8H8.7zM9.3,4.5H9.6V4.8H9.3zM9.9,4.5H10.2V4.8H9.9zM10.2,4.5H10.5V4.8H10.2zM10.5,4.5H10.8V4.8H10.5zM10.8,4.5H11.1V4.8H10.8zM11.7,4.5H12V4.8H11.7zM12.3,4.5H12.6V4.8H12.3zM12.9,4.5H13.2V4.8H12.9zM0.3,4.8H0.6V5.1H0.3zM0.6,4.8H0.9V5.1H0.6zM1.2,4.8H1.5V5.1H1.2zM1.5,4.8H1.8V5.1H1.5zM1.8,4.8H2.1V5.1H1.8zM2.1,4.8H2.4V5.1H2.1zM2.4,4.8H2.7V5.1H2.4zM2.7,4.8H3V5.1H2.7zM3.6,4.8H3.9V5.1H3.6zM4.2,4.8H4.5V5.1H4.2zM5.7,4.8H6V5.1H5.7zM6,4.8H6.3V5.1H6zM6.6,4.8H6.9V5.1H6.6zM6.9,4.8H7.2V5.1H6.9zM7.5,4.8H7.8V5.1H7.5zM7.8,4.8H8.1V5.1H7.8zM9.6,4.8H9.9V5.1H9.6zM10.2,4.8H10.5V5.1H10.2zM10.5,4.8H10.8V5.1H10.5zM11.4,4.8H11.7V5.1H11.4zM11.7,4.8H12V5.1H11.7zM12.3,4.8H12.6V5.1H12.3zM12.6,4.8H12.9V5.1H12.6zM0.6,5.1H0.9V5.4H0.6zM0.9,5.1H1.2V5.4H0.9zM2.7,5.1H3V5.4H2.7zM3,5.1H3.3V5.4H3zM3.3,5.1H3.6V5.4H3.3zM3.6,5.1H3.9V5.4H3.6zM4.2,5.1H4.5V5.4H4.2zM4.5,5.1H4.8V5.4H4.5zM4.8,5.1H5.1V5.4H4.8zM5.7,5.1H6V5.4H5.7zM6.3,5.1H6.6V5.4H6.3zM7.5,5.1H7.8V5.4H7.5zM7.8,5.1H8.1V5.4H7.8zM9.3,5.1H9.6V5.4H9.3zM10.2,5.1H10.5V5.4H10.2zM10.5,5.1H10.8V5.4H10.5zM11.4,5.1H11.7V5.4H11.4zM11.7,5.1H12V5.4H11.7zM12.3,5.1H12.6V5.4H12.3zM12.9,5.1H13.2V5.4H12.9zM13.2,5.1H13.5V5.4H13.2zM0.3,5.4H0.6V5.7H0.3zM1.2,5.4H1.5V5.7H1.2zM1.8,5.4H2.1V5.7H1.8zM2.1,5.4H2.4V5.7H2.1zM2.4,5.4H2.7V5.7H2.4zM2.7,5.4H3V5.7H2.7zM3.6,5.4H3.9V5.7H3.6zM3.9,5.4H4.2V5.7H3.9zM5.1,5.4H5.4V5.7H5.1zM5.4,5.4H5.7V5.7H5.4zM6.3,5.4H6.6V5.7H6.3zM6.6,5.4H6.9V5.7H6.6zM7.2,5.4H7.5V5.7H7.2zM7.5,5.4H7.8V5.7H7.5zM7.8,5.4H8.1V5.7H7.8zM8.1,5.4H8.4V5.7H8.1zM8.7,5.4H9V5.7H8.7zM9,5.4H9.3V5.7H9zM9.3,5.4H9.6V5.7H9.3zM9.6,5.4H9.9V5.7H9.6zM10.2,5.4H10.5V5.7H10.2zM11.4,5.4H11.7V5.7H11.4zM12.6,5.4H12.9V5.7H12.6zM13.2,5.4H13.5V5.7H13.2zM0.6,5.7H0.9V6H0.6zM1.2,5.7H1.5V6H1.2zM2.1,5.7H2.4V6H2.1zM2.7,5.7H3V6H2.7zM3.3,5.7H3.6V6H3.3zM3.9,5.7H4.2V6H3.9zM5.1,5.7H5.4V6H5.1zM6.3,5.7H6.6V6H6.3zM7.5,5.7H7.8V6H7.5zM7.8,5.7H8.1V6H7.8zM8.1,5.7H8.4V6H8.1zM9.3,5.7H9.6V6H9.3zM9.9,5.7H10.2V6H9.9zM10.5,5.7H10.8V6H10.5zM10.8,5.7H11.1V6H10.8zM12,5.7H12.3V6H12zM12.6,5.7H12.9V6H12.6zM12.9,5.7H13.2V6H12.9zM0,6H0.3V6.3H0zM0.3,6H0.6V6.3H0.3zM1.2,6H1.5V6.3H1.2zM1.5,6H1.8V6.3H1.5zM1.8,6H2.1V6.3H1.8zM2.1,6H2.4V6.3H2.1zM2.4,6H2.7V6.3H2.4zM2.7,6H3V6.3H2.7zM3.6,6H3.9V6.3H3.6zM4.2,6H4.5V6.3H4.2zM4.5,6H4.8V6.3H4.5zM4.8,6H5.1V6.3H4.8zM6,6H6.3V6.3H6zM6.3,6H6.6V6.3H6.3zM6.6,6H6.9V6.3H6.6zM6.9,6H7.2V6.3H6.9zM7.2,6H7.5V6.3H7.2zM7.8,6H8.1V6.3H7.8zM8.4,6H8.7V6.3H8.4zM9,6H9.3V6.3H9zM9.9,6H10.2V6.3H9.9zM10.2,6H10.5V6.3H10.2zM10.8,6H11.1V6.3H10.8zM11.1,6H11.4V6.3H11.1zM11.4,6H11.7V6.3H11.4zM11.7,6H12V6.3H11.7zM12,6H12.3V6.3H12zM12.6,6H12.9V6.3H12.6zM12.9,6H13.2V6.3H12.9zM0,6.3H0.3V6.6H0zM1.2,6.3H1.5V6.6H1.2zM2.4,6.3H2.7V6.6H2.4zM2.7,6.3H3V6.6H2.7zM3,6.3H3.3V6.6H3zM3.3,6.3H3.6V6.6H3.3zM3.9,6.3H4.2V6.6H3.9zM4.2,6.3H4.5V6.6H4.2zM4.5,6.3H4.8V6.6H4.5zM5.1,6.3H5.4V6.6H5.1zM6,6.3H6.3V6.6H6zM7.2,6.3H7.5V6.6H7.2zM7.8,6.3H8.1V6.6H7.8zM8.1,6.3H8.4V6.6H8.1zM8.7,6.3H9V6.6H8.7zM9.3,6.3H9.6V6.6H9.3zM10.2,6.3H10.5V6.6H10.2zM10.5,6.3H10.8V6.6H10.5zM10.8,6.3H11.1V6.6H10.8zM12,6.3H12.3V6.6H12zM12.3,6.3H12.6V6.6H12.3zM12.9,6.3H13.2V6.6H12.9zM13.2,6.3H13.5V6.6H13.2zM0,6.6H0.3V6.9H0zM1.2,6.6H1.5V6.9H1.2zM1.8,6.6H2.1V6.9H1.8zM2.4,6.6H2.7V6.9H2.4zM2.7,6.6H3V6.9H2.7zM3.3,6.6H3.6V6.9H3.3zM3.9,6.6H4.2V6.9H3.9zM4.2,6.6H4.5V6.9H4.2zM4.5,6.6H4.8V6.9H4.5zM4.8,6.6H5.1V6.9H4.8zM5.1,6.6H5.4V6.9H5.1zM6,6.6H6.3V6.9H6zM6.6,6.6H6.9V6.9H6.6zM7.2,6.6H7.5V6.9H7.2zM7.8,6.6H8.1V6.9H7.8zM8.4,6.6H8.7V6.9H8.4zM9.3,6.6H9.6V6.9H9.3zM9.6,6.6H9.9V6.9H9.6zM9.9,6.6H10.2V6.9H9.9zM10.2,6.6H10.5V6.9H10.2zM10.5,6.6H10.8V6.9H10.5zM10.8,6.6H11.1V6.9H10.8zM11.4,6.6H11.7V6.9H11.4zM12,6.6H12.3V6.9H12zM12.3,6.6H12.6V6.9H12.3zM12.9,6.6H13.2V6.9H12.9zM13.2,6.6H13.5V6.9H13.2zM0,6.9H0.3V7.2H0zM1.2,6.9H1.5V7.2H1.2zM2.4,6.9H2.7V7.2H2.4zM2.7,6.9H3V7.2H2.7zM3.3,6.9H3.6V7.2H3.3zM3.9,6.9H4.2V7.2H3.9zM5.1,6.9H5.4V7.2H5.1zM5.4,6.9H5.7V7.2H5.4zM6,6.9H6.3V7.2H6zM7.2,6.9H7.5V7.2H7.2zM7.8,6.9H8.1V7.2H7.8zM8.1,6.9H8.4V7.2H8.1zM8.7,6.9H9V7.2H8.7zM9,6.9H9.3V7.2H9zM9.3,6.9H9.6V7.2H9.3zM9.9,6.9H10.2V7.2H9.9zM10.2,6.9H10.5V7.2H10.2zM10.8,6.9H11.1V7.2H10.8zM12,6.9H12.3V7.2H12zM13.2,6.9H13.5V7.2H13.2zM0.3,7.2H0.6V7.5H0.3zM0.9,7.2H1.2V7.5H0.9zM1.2,7.2H1.5V7.5H1.2zM1.5,7.2H1.8V7.5H1.5zM1.8,7.2H2.1V7.5H1.8zM2.1,7.2H2.4V7.5H2.1zM2.4,7.2H2.7V7.5H2.4zM3,7.2H3.3V7.5H3zM3.6,7.2H3.9V7.5H3.6zM5.1,7.2H5.4V7.5H5.1zM6,7.2H6.3V7.5H6zM6.3,7.2H6.6V7.5H6.3zM6.6,7.2H6.9V7.5H6.6zM6.9,7.2H7.2V7.5H6.9zM7.2,7.2H7.5V7.5H7.2zM7.5,7.2H7.8V7.5H7.5zM7.8,7.2H8.1V7.5H7.8zM8.1,7.2H8.4V7.5H8.1zM8.4,7.2H8.7V7.5H8.4zM8.7,7.2H9V7.5H8.7zM9,7.2H9.3V7.5H9zM9.3,7.2H9.6V7.5H9.3zM9.6,7.2H9.9V7.5H9.6zM10.8,7.2H11.1V7.5H10.8zM11.1,7.2H11.4V7.5H11.1zM11.4,7.2H11.7V7.5H11.4zM11.7,7.2H12V7.5H11.7zM12,7.2H12.3V7.5H12zM12.6,7.2H12.9V7.5H12.6zM12.9,7.2H13.2V7.5H12.9zM0,7.5H0.3V7.8H0zM0.3,7.5H0.6V7.8H0.3zM1.5,7.5H1.8V7.8H1.5zM2.1,7.5H2.4V7.8H2.1zM3.3,7.5H3.6V7.8H3.3zM3.6,7.5H3.9V7.8H3.6zM4.2,7.5H4.5V7.8H4.2zM4.5,7.5H4.8V7.8H4.5zM5.1,7.5H5.4V7.8H5.1zM6,7.5H6.3V7.8H6zM6.3,7.5H6.6V7.8H6.3zM6.9,7.5H7.2V7.8H6.9zM7.5,7.5H7.8V7.8H7.5zM8.7,7.5H9V7.8H8.7zM10.5,7.5H10.8V7.8H10.5zM11.1,7.5H11.4V7.8H11.1zM12.3,7.5H12.6V7.8H12.3zM12.9,7.5H13.2V7.8H12.9zM0,7.8H0.3V8.1H0zM0.6,7.8H0.9V8.1H0.6zM1.8,7.8H2.1V8.1H1.8zM2.7,7.8H3V8.1H2.7zM3,7.8H3.3V8.1H3zM3.6,7.8H3.9V8.1H3.6zM3.9,7.8H4.2V8.1H3.9zM4.2,7.8H4.5V8.1H4.2zM4.8,7.8H5.1V8.1H4.8zM5.4,7.8H5.7V8.1H5.4zM6.6,7.8H6.9V8.1H6.6zM6.9,7.8H7.2V8.1H6.9zM7.5,7.8H7.8V8.1H7.5zM8.4,7.8H8.7V8.1H8.4zM8.7,7.8H9V8.1H8.7zM9,7.8H9.3V8.1H9zM9.9,7.8H10.2V8.1H9.9zM10.2,7.8H10.5V8.1H10.2zM11.1,7.8H11.4V8.1H11.1zM11.7,7.8H12V8.1H11.7zM12,7.8H12.3V8.1H12zM12.6,7.8H12.9V8.1H12.6zM12.9,7.8H13.2V8.1H12.9zM13.2,7.8H13.5V8.1H13.2zM0.3,8.1H0.6V8.4H0.3zM0.6,8.1H0.9V8.4H0.6zM1.5,8.1H1.8V8.4H1.5zM2.1,8.1H2.4V8.4H2.1zM2.4,8.1H2.7V8.4H2.4zM3,8.1H3.3V8.4H3zM3.3,8.1H3.6V8.4H3.3zM3.6,8.1H3.9V8.4H3.6zM3.9,8.1H4.2V8.4H3.9zM4.8,8.1H5.1V8.4H4.8zM5.1,8.1H5.4V8.4H5.1zM5.4,8.1H5.7V8.4H5.4zM6.3,8.1H6.6V8.4H6.3zM6.6,8.1H6.9V8.4H6.6zM6.9,8.1H7.2V8.4H6.9zM7.5,8.1H7.8V8.4H7.5zM8.1,8.1H8.4V8.4H8.1zM8.7,8.1H9V8.4H8.7zM9.3,8.1H9.6V8.4H9.3zM9.9,8.1H10.2V8.4H9.9zM10.5,8.1H10.8V8.4H10.5zM10.8,8.1H11.1V8.4H10.8zM11.1,8.1H11.4V8.4H11.1zM12.9,8.1H13.2V8.4H12.9zM0.3,8.4H0.6V8.7H0.3zM1.5,8.4H1.8V8.7H1.5zM1.8,8.4H2.1V8.7H1.8zM2.1,8.4H2.4V8.7H2.1zM2.4,8.4H2.7V8.7H2.4zM3,8.4H3.3V8.7H3zM4.5,8.4H4.8V8.7H4.5zM4.8,8.4H5.1V8.7H4.8zM6.3,8.4H6.6V8.7H6.3zM7.2,8.4H7.5V8.7H7.2zM8.1,8.4H8.4V8.7H8.1zM9,8.4H9.3V8.7H9zM9.6,8.4H9.9V8.7H9.6zM10.2,8.4H10.5V8.7H10.2zM10.5,8.4H10.8V8.7H10.5zM10.8,8.4H11.1V8.7H10.8zM11.4,8.4H11.7V8.7H11.4zM11.7,8.4H12V8.7H11.7zM12.3,8.4H12.6V8.7H12.3zM12.6,8.4H12.9V8.7H12.6zM0.6,8.7H0.9V9H0.6zM0.9,8.7H1.2V9H0.9zM1.2,8.7H1.5V9H1.2zM2.4,8.7H2.7V9H2.4zM3.3,8.7H3.6V9H3.3zM3.6,8.7H3.9V9H3.6zM4.5,8.7H4.8V9H4.5zM5.7,8.7H6V9H5.7zM6.6,8.7H6.9V9H6.6zM6.9,8.7H7.2V9H6.9zM7.5,8.7H7.8V9H7.5zM7.8,8.7H8.1V9H7.8zM8.1,8.7H8.4V9H8.1zM8.7,8.7H9V9H8.7zM9,8.7H9.3V9H9zM9.6,8.7H9.9V9H9.6zM10.2,8.7H10.5V9H10.2zM10.5,8.7H10.8V9H10.5zM11.1,8.7H11.4V9H11.1zM11.7,8.7H12V9H11.7zM12.9,8.7H13.2V9H12.9zM0,9H0.3V9.3H0zM1.5,9H1.8V9.3H1.5zM1.8,9H2.1V9.3H1.8zM3.6,9H3.9V9.3H3.6zM4.2,9H4.5V9.3H4.2zM5.4,9H5.7V9.3H5.4zM6.3,9H6.6V9.3H6.3zM6.6,9H6.9V9.3H6.6zM6.9,9H7.2V9.3H6.9zM7.2,9H7.5V9.3H7.2zM8.1,9H8.4V9.3H8.1zM8.4,9H8.7V9.3H8.4zM8.7,9H9V9.3H8.7zM9.3,9H9.6V9.3H9.3zM9.6,9H9.9V9.3H9.6zM9.9,9H10.2V9.3H9.9zM10.2,9H10.5V9.3H10.2zM10.5,9H10.8V9.3H10.5zM10.8,9H11.1V9.3H10.8zM11.4,9H11.7V9.3H11.4zM12.3,9H12.6V9.3H12.3zM12.6,9H12.9V9.3H12.6zM12.9,9H13.2V9.3H12.9zM0.6,9.3H0.9V9.6H0.6zM0.9,9.3H1.2V9.6H0.9zM1.2,9.3H1.5V9.6H1.2zM1.5,9.3H1.8V9.6H1.5zM2.1,9.3H2.4V9.6H2.1zM3,9.3H3.3V9.6H3zM4.2,9.3H4.5V9.6H4.2zM4.5,9.3H4.8V9.6H4.5zM4.8,9.3H5.1V9.6H4.8zM5.4,9.3H5.7V9.6H5.4zM5.7,9.3H6V9.6H5.7zM7.2,9.3H7.5V9.6H7.2zM7.5,9.3H7.8V9.6H7.5zM8.1,9.3H8.4V9.6H8.1zM8.4,9.3H8.7V9.6H8.4zM8.7,9.3H9V9.6H8.7zM9,9.3H9.3V9.6H9zM10.2,9.3H10.5V9.6H10.2zM10.8,9.3H11.1V9.6H10.8zM11.4,9.3H11.7V9.6H11.4zM11.7,9.3H12V9.6H11.7zM12,9.3H12.3V9.6H12zM12.9,9.3H13.2V9.6H12.9zM0.9,9.6H1.2V9.9H0.9zM1.5,9.6H1.8V9.9H1.5zM1.8,9.6H2.1V9.9H1.8zM2.1,9.6H2.4V9.9H2.1zM2.4,9.6H2.7V9.9H2.4zM2.7,9.6H3V9.9H2.7zM3,9.6H3.3V9.9H3zM3.3,9.6H3.6V9.9H3.3zM3.9,9.6H4.2V9.9H3.9zM4.2,9.6H4.5V9.9H4.2zM4.8,9.6H5.1V9.9H4.8zM5.4,9.6H5.7V9.9H5.4zM6,9.6H6.3V9.9H6zM6.3,9.6H6.6V9.9H6.3zM6.6,9.6H6.9V9.9H6.6zM7.2,9.6H7.5V9.9H7.2zM7.5,9.6H7.8V9.9H7.5zM7.8,9.6H8.1V9.9H7.8zM8.4,9.6H8.7V9.9H8.4zM8.7,9.6H9V9.9H8.7zM9,9.6H9.3V9.9H9zM9.3,9.6H9.6V9.9H9.3zM9.6,9.6H9.9V9.9H9.6zM10.2,9.6H10.5V9.9H10.2zM11.4,9.6H11.7V9.9H11.4zM11.7,9.6H12V9.9H11.7zM12.3,9.6H12.6V9.9H12.3zM12.6,9.6H12.9V9.9H12.6zM13.2,9.6H13.5V9.9H13.2zM0.3,9.9H0.6V10.2H0.3zM0.6,9.9H0.9V10.2H0.6zM0.9,9.9H1.2V10.2H0.9zM1.5,9.9H1.8V10.2H1.5zM2.1,9.9H2.4V10.2H2.1zM3,9.9H3.3V10.2H3zM3.3,9.9H3.6V10.2H3.3zM3.6,9.9H3.9V10.2H3.6zM4.2,9.9H4.5V10.2H4.2zM4.5,9.9H4.8V10.2H4.5zM5.7,9.9H6V10.2H5.7zM6.9,9.9H7.2V10.2H6.9zM7.2,9.9H7.5V10.2H7.2zM7.5,9.9H7.8V10.2H7.5zM7.8,9.9H8.1V10.2H7.8zM9.6,9.9H9.9V10.2H9.6zM10.2,9.9H10.5V10.2H10.2zM11.4,9.9H11.7V10.2H11.4zM11.7,9.9H12V10.2H11.7zM12,9.9H12.3V10.2H12zM12.3,9.9H12.6V10.2H12.3zM12.6,9.9H12.9V10.2H12.6zM1.2,10.2H1.5V10.5H1.2zM1.8,10.2H2.1V10.5H1.8zM2.4,10.2H2.7V10.5H2.4zM2.7,10.2H3V10.5H2.7zM3,10.2H3.3V10.5H3zM4.5,10.2H4.8V10.5H4.5zM5.4,10.2H5.7V10.5H5.4zM5.7,10.2H6V10.5H5.7zM6,10.2H6.3V10.5H6zM6.3,10.2H6.6V10.5H6.3zM7.8,10.2H8.1V10.5H7.8zM9,10.2H9.3V10.5H9zM9.6,10.2H9.9V10.5H9.6zM10.8,10.2H11.1V10.5H10.8zM11.1,10.2H11.4V10.5H11.1zM11.4,10.2H11.7V10.5H11.4zM12,10.2H12.3V10.5H12zM12.6,10.2H12.9V10.5H12.6zM12.9,10.2H13.2V10.5H12.9zM0.3,10.5H0.6V10.8H0.3zM0.6,10.5H0.9V10.8H0.6zM0.9,10.5H1.2V10.8H0.9zM1.2,10.5H1.5V10.8H1.2zM2.4,10.5H2.7V10.8H2.4zM3.3,10.5H3.6V10.8H3.3zM3.6,10.5H3.9V10.8H3.6zM3.9,10.5H4.2V10.8H3.9zM5.1,10.5H5.4V10.8H5.1zM5.7,10.5H6V10.8H5.7zM6.3,10.5H6.6V10.8H6.3zM6.6,10.5H6.9V10.8H6.6zM6.9,10.5H7.2V10.8H6.9zM7.2,10.5H7.5V10.8H7.2zM7.5,10.5H7.8V10.8H7.5zM8.4,10.5H8.7V10.8H8.4zM9,10.5H9.3V10.8H9zM9.6,10.5H9.9V10.8H9.6zM9.9,10.5H10.2V10.8H9.9zM10.2,10.5H10.5V10.8H10.2zM10.5,10.5H10.8V10.8H10.5zM11.1,10.5H11.4V10.8H11.1zM11.4,10.5H11.7V10.8H11.4zM11.7,10.5H12V10.8H11.7zM12.6,10.5H12.9V10.8H12.6zM12.9,10.5H13.2V10.8H12.9zM0,10.8H0.3V11.1H0zM0.9,10.8H1.2V11.1H0.9zM1.2,10.8H1.5V11.1H1.2zM1.8,10.8H2.1V11.1H1.8zM2.1,10.8H2.4V11.1H2.1zM2.4,10.8H2.7V11.1H2.4zM3,10.8H3.3V11.1H3zM3.3,10.8H3.6V11.1H3.3zM3.6,10.8H3.9V11.1H3.6zM4.8,10.8H5.1V11.1H4.8zM5.1,10.8H5.4V11.1H5.1zM6,10.8H6.3V11.1H6zM6.3,10.8H6.6V11.1H6.3zM6.6,10.8H6.9V11.1H6.6zM6.9,10.8H7.2V11.1H6.9zM7.2,10.8H7.5V11.1H7.2zM7.8,10.8H8.1V11.1H7.8zM8.7,10.8H9V11.1H8.7zM9,10.8H9.3V11.1H9zM9.9,10.8H10.2V11.1H9.9zM10.2,10.8H10.5V11.1H10.2zM10.8,10.8H11.1V11.1H10.8zM11.1,10.8H11.4V11.1H11.1zM11.4,10.8H11.7V11.1H11.4zM11.7,10.8H12V11.1H11.7zM12,10.8H12.3V11.1H12zM12.3,10.8H12.6V11.1H12.3zM12.6,10.8H12.9V11.1H12.6zM13.2,10.8H13.5V11.1H13.2zM2.4,11.1H2.7V11.4H2.4zM3,11.1H3.3V11.4H3zM3.3,11.1H3.6V11.4H3.3zM3.6,11.1H3.9V11.4H3.6zM4.5,11.1H4.8V11.4H4.5zM5.4,11.1H5.7V11.4H5.4zM6,11.1H6.3V11.4H6zM7.2,11.1H7.5V11.4H7.2zM7.8,11.1H8.1V11.4H7.8zM8.1,11.1H8.4V11.4H8.1zM8.4,11.1H8.7V11.4H8.4zM8.7,11.1H9V11.4H8.7zM9.9,11.1H10.2V11.4H9.9zM10.2,11.1H10.5V11.4H10.2zM10.8,11.1H11.1V11.4H10.8zM12,11.1H12.3V11.4H12zM12.9,11.1H13.2V11.4H12.9zM13.2,11.1H13.5V11.4H13.2zM0,11.4H0.3V11.7H0zM0.3,11.4H0.6V11.7H0.3zM0.6,11.4H0.9V11.7H0.6zM0.9,11.4H1.2V11.7H0.9zM1.2,11.4H1.5V11.7H1.2zM1.5,11.4H1.8V11.7H1.5zM1.8,11.4H2.1V11.7H1.8zM3.3,11.4H3.6V11.7H3.3zM3.6,11.4H3.9V11.7H3.6zM3.9,11.4H4.2V11.7H3.9zM4.8,11.4H5.1V11.7H4.8zM5.4,11.4H5.7V11.7H5.4zM6,11.4H6.3V11.7H6zM6.6,11.4H6.9V11.7H6.6zM7.2,11.4H7.5V11.7H7.2zM7.8,11.4H8.1V11.7H7.8zM9,11.4H9.3V11.7H9zM9.3,11.4H9.6V11.7H9.3zM9.9,11.4H10.2V11.7H9.9zM10.8,11.4H11.1V11.7H10.8zM11.4,11.4H11.7V11.7H11.4zM12,11.4H12.3V11.7H12zM12.6,11.4H12.9V11.7H12.6zM12.9,11.4H13.2V11.7H12.9zM13.2,11.4H13.5V11.7H13.2zM0,11.7H0.3V12H0zM1.8,11.7H2.1V12H1.8zM2.7,11.7H3V12H2.7zM3.6,11.7H3.9V12H3.6zM6,11.7H6.3V12H6zM7.2,11.7H7.5V12H7.2zM7.5,11.7H7.8V12H7.5zM8.1,11.7H8.4V12H8.1zM9.3,11.7H9.6V12H9.3zM9.6,11.7H9.9V12H9.6zM9.9,11.7H10.2V12H9.9zM10.5,11.7H10.8V12H10.5zM10.8,11.7H11.1V12H10.8zM12,11.7H12.3V12H12zM12.3,11.7H12.6V12H12.3zM0,12H0.3V12.3H0zM0.6,12H0.9V12.3H0.6zM0.9,12H1.2V12.3H0.9zM1.2,12H1.5V12.3H1.2zM1.8,12H2.1V12.3H1.8zM2.4,12H2.7V12.3H2.4zM2.7,12H3V12.3H2.7zM3.9,12H4.2V12.3H3.9zM4.5,12H4.8V12.3H4.5zM5.1,12H5.4V12.3H5.1zM6,12H6.3V12.3H6zM6.3,12H6.6V12.3H6.3zM6.6,12H6.9V12.3H6.6zM6.9,12H7.2V12.3H6.9zM7.2,12H7.5V12.3H7.2zM7.5,12H7.8V12.3H7.5zM7.8,12H8.1V12.3H7.8zM8.1,12H8.4V12.3H8.1zM8.4,12H8.7V12.3H8.4zM9,12H9.3V12.3H9zM9.6,12H9.9V12.3H9.6zM9.9,12H10.2V12.3H9.9zM10.8,12H11.1V12.3H10.8zM11.1,12H11.4V12.3H11.1zM11.4,12H11.7V12.3H11.4zM11.7,12H12V12.3H11.7zM12,12H12.3V12.3H12zM12.6,12H12.9V12.3H12.6zM12.9,12H13.2V12.3H12.9zM13.2,12H13.5V12.3H13.2zM0,12.3H0.3V12.6H0zM0.6,12.3H0.9V12.6H0.6zM0.9,12.3H1.2V12.6H0.9zM1.2,12.3H1.5V12.6H1.2zM1.8,12.3H2.1V12.6H1.8zM3.3,12.3H3.6V12.6H3.3zM3.6,12.3H3.9V12.6H3.6zM4.2,12.3H4.5V12.6H4.2zM4.5,12.3H4.8V12.6H4.5zM5.1,12.3H5.4V12.6H5.1zM5.4,12.3H5.7V12.6H5.4zM5.7,12.3H6V12.6H5.7zM6.6,12.3H6.9V12.6H6.6zM7.5,12.3H7.8V12.6H7.5zM8.1,12.3H8.4V12.6H8.1zM8.7,12.3H9V12.6H8.7zM9.3,12.3H9.6V12.6H9.3zM10.5,12.3H10.8V12.6H10.5zM11.1,12.3H11.4V12.6H11.1zM11.7,12.3H12V12.6H11.7zM12.3,12.3H12.6V12.6H12.3zM12.9,12.3H13.2V12.6H12.9zM13.2,12.3H13.5V12.6H13.2zM0,12.6H0.3V12.9H0zM0.6,12.6H0.9V12.9H0.6zM0.9,12.6H1.2V12.9H0.9zM1.2,12.6H1.5V12.9H1.2zM1.8,12.6H2.1V12.9H1.8zM2.4,12.6H2.7V12.9H2.4zM2.7,12.6H3V12.9H2.7zM3.3,12.6H3.6V12.9H3.3zM4.8,12.6H5.1V12.9H4.8zM5.7,12.6H6V12.9H5.7zM6,12.6H6.3V12.9H6zM6.6,12.6H6.9V12.9H6.6zM6.9,12.6H7.2V12.9H6.9zM7.2,12.6H7.5V12.9H7.2zM7.5,12.6H7.8V12.9H7.5zM8.1,12.6H8.4V12.9H8.1zM9.6,12.6H9.9V12.9H9.6zM10.2,12.6H10.5V12.9H10.2zM10.5,12.6H10.8V12.9H10.5zM11.4,12.6H11.7V12.9H11.4zM11.7,12.6H12V12.9H11.7zM12,12.6H12.3V12.9H12zM13.2,12.6H13.5V12.9H13.2zM0,12.9H0.3V13.2H0zM1.8,12.9H2.1V13.2H1.8zM3.6,12.9H3.9V13.2H3.6zM3.9,12.9H4.2V13.2H3.9zM4.2,12.9H4.5V13.2H4.2zM5.1,12.9H5.4V13.2H5.1zM6.3,12.9H6.6V13.2H6.3zM6.6,12.9H6.9V13.2H6.6zM6.9,12.9H7.2V13.2H6.9zM7.5,12.9H7.8V13.2H7.5zM7.8,12.9H8.1V13.2H7.8zM8.1,12.9H8.4V13.2H8.1zM8.7,12.9H9V13.2H8.7zM9,12.9H9.3V13.2H9zM9.9,12.9H10.2V13.2H9.9zM10.2,12.9H10.5V13.2H10.2zM10.5,12.9H10.8V13.2H10.5zM11.4,12.9H11.7V13.2H11.4zM12.9,12.9H13.2V13.2H12.9zM0,13.2H0.3V13.5H0zM0.3,13.2H0.6V13.5H0.3zM0.6,13.2H0.9V13.5H0.6zM0.9,13.2H1.2V13.5H0.9zM1.2,13.2H1.5V13.5H1.2zM1.5,13.2H1.8V13.5H1.5zM1.8,13.2H2.1V13.5H1.8zM2.4,13.2H2.7V13.5H2.4zM3,13.2H3.3V13.5H3zM4.5,13.2H4.8V13.5H4.5zM4.8,13.2H5.1V13.5H4.8zM5.1,13.2H5.4V13.5H5.1zM5.7,13.2H6V13.5H5.7zM6,13.2H6.3V13.5H6zM7.2,13.2H7.5V13.5H7.2zM7.8,13.2H8.1V13.5H7.8zM8.1,13.2H8.4V13.5H8.1zM9,13.2H9.3V13.5H9zM9.3,13.2H9.6V13.5H9.3zM9.6,13.2H9.9V13.5H9.6zM10.5,13.2H10.8V13.5H10.5zM10.8,13.2H11.1V13.5H10.8zM11.4,13.2H11.7V13.5H11.4zM11.7,13.2H12V13.5H11.7zM12,13.2H12.3V13.5H12zM12.9,13.2H13.2V13.5H12.9zM13.2,13.2H13.5V13.5H13.2z" id="qr-path" fill="#99D0BA" fill-opacity="1" fill-rule="nonzero" stroke="none"/></svg>